<?xml version="1.0" standalone="no"?>
<!DOCTYPE svg PUBLIC "-//W3C//DTD SVG 20010904//EN"
 "http://www.w3.org/TR/2001/REC-SVG-20010904/DTD/svg10.dtd">
<svg version="1.0" xmlns="http://www.w3.org/2000/svg"
 width="800.000000pt" height="800.000000pt" viewBox="0 0 800.000000 800.000000"
 preserveAspectRatio="xMidYMid meet">
<metadata>
Created by potrace 1.16, written by Peter Selinger 2001-2019
</metadata>
<g transform="translate(0.000000,800.000000) scale(0.100000,-0.100000)"
fill="#490808" stroke="none">
<path d="M5873 6786 c-138 -35 -231 -103 -450 -332 -185 -193 -185 -193 -263
-148 -234 135 -596 235 -925 255 -503 31 -934 -44 -1299 -227 -70 -35 -138
-64 -150 -64 -14 0 -80 60 -206 188 -185 188 -275 262 -366 304 -42 20 -66 23
-174 23 l-125 0 -77 -44 c-224 -128 -300 -268 -276 -508 19 -197 76 -342 179
-456 75 -83 142 -135 286 -222 94 -56 113 -71 113 -91 0 -17 -32 -57 -109
-137 -103 -106 -155 -152 -331 -297 -41 -34 -99 -89 -128 -123 -58 -67 -159
-214 -181 -262 -39 -86 -65 -161 -93 -265 l-32 -115 -3 -393 c-5 -435 -1 -480
52 -638 38 -114 147 -339 206 -427 22 -32 62 -104 89 -161 51 -107 128 -206
159 -206 16 0 18 13 17 143 0 134 2 147 32 237 49 147 112 249 220 357 50 51
92 98 92 104 0 15 -79 3 -142 -22 -98 -39 -234 -141 -299 -226 -23 -29 -45
-50 -50 -47 -16 10 -9 128 11 203 36 127 111 250 219 356 28 27 51 58 51 68 0
17 -5 19 -37 14 -47 -8 -174 -69 -227 -109 -22 -17 -69 -58 -103 -92 -34 -33
-66 -56 -70 -52 -5 4 -8 63 -8 130 0 122 0 123 38 197 64 126 142 210 347 371
34 27 34 28 16 43 -11 8 -32 15 -46 15 -49 0 -180 -39 -267 -80 -47 -22 -94
-40 -104 -40 -25 0 -25 30 2 116 28 90 58 148 111 210 91 108 189 176 341 238
57 22 114 48 127 57 l24 15 -22 22 c-20 20 -33 22 -126 22 -57 0 -139 -7 -182
-15 -43 -8 -80 -12 -83 -9 -3 3 42 52 101 109 97 94 118 109 230 165 100 49
153 68 282 100 87 22 161 42 164 44 10 10 4 57 -9 73 -31 37 -90 53 -196 53
-57 0 -103 2 -103 5 0 2 50 53 111 112 201 195 203 235 21 344 -204 122 -362
263 -414 371 -58 119 -73 257 -38 351 59 157 249 204 410 101 33 -20 140 -128
388 -387 96 -101 104 -107 142 -107 28 0 65 14 127 47 248 133 421 199 653
248 206 43 332 54 580 51 199 -3 239 -6 350 -30 325 -70 515 -142 715 -271
112 -72 116 -71 265 87 339 361 398 407 543 415 64 4 78 2 127 -24 63 -32 114
-93 131 -156 17 -62 -2 -214 -37 -301 -47 -117 -199 -259 -406 -377 -117 -67
-158 -106 -158 -150 0 -49 23 -81 145 -201 l108 -106 -59 -7 c-82 -9 -170 -32
-199 -51 -31 -20 -43 -60 -23 -80 8 -8 75 -29 149 -48 152 -38 253 -78 354
-141 96 -59 261 -223 243 -241 -3 -2 -34 2 -69 11 -76 18 -238 20 -274 3 -15
-6 -25 -18 -23 -27 2 -9 60 -44 134 -81 72 -36 157 -85 189 -109 131 -102 219
-234 246 -368 18 -87 9 -93 -78 -49 -88 44 -206 77 -286 79 -85 3 -87 -16 -5
-73 97 -68 258 -234 296 -307 44 -83 65 -188 57 -275 -4 -37 -13 -75 -20 -85
-12 -16 -17 -13 -69 32 -147 130 -250 194 -338 210 -53 10 -50 -8 14 -81 156
-178 223 -310 235 -466 3 -43 3 -78 0 -78 -4 0 -42 32 -84 71 -138 126 -256
194 -355 206 l-53 6 67 -71 c141 -150 197 -239 248 -390 29 -86 31 -102 30
-225 -1 -73 -1 -138 -1 -144 1 -18 27 -16 56 3 35 23 99 122 129 201 14 38 51
107 81 153 118 181 222 426 250 588 18 100 21 732 5 847 -47 328 -200 598
-466 820 -133 111 -305 274 -367 349 l-41 49 26 21 c14 11 67 44 118 71 297
162 431 366 456 691 10 135 -8 220 -60 297 -47 69 -182 184 -263 223 -63 31
-181 40 -260 20z"/>
<path d="M3845 6249 c-322 -34 -664 -193 -748 -347 -43 -80 -47 -192 -6 -192
6 0 43 29 81 65 105 97 311 192 518 240 244 55 518 48 753 -20 200 -58 353
-135 456 -230 32 -30 61 -55 64 -55 4 0 11 17 18 39 14 46 -1 127 -32 177 -71
115 -305 237 -560 292 -179 39 -366 50 -544 31z"/>
<path d="M3799 5956 c-104 -42 -196 -111 -225 -169 -25 -48 -7 -54 83 -27 251
74 470 78 701 14 112 -31 142 -31 142 -2 0 25 -71 96 -139 139 -87 55 -154 69
-340 69 -150 0 -171 -3 -222 -24z"/>
<path d="M3702 5719 c-76 -13 -188 -52 -289 -101 -151 -74 -263 -200 -263
-298 0 -47 35 -131 57 -138 6 -2 34 27 61 65 60 82 107 121 215 178 96 51 205
86 337 110 123 23 150 46 150 128 0 41 -4 56 -16 61 -23 9 -189 5 -252 -5z"/>
<path d="M4102 5717 c-21 -25 -24 -65 -7 -100 19 -41 57 -60 165 -83 281 -60
440 -146 552 -301 39 -54 64 -56 85 -6 22 55 13 149 -21 207 -72 123 -323 256
-539 285 -108 15 -222 14 -235 -2z"/>
<path d="M3849 5285 c-255 -148 -333 -471 -174 -720 37 -59 62 -82 75 -69 5 5
10 90 12 189 5 213 7 222 120 443 110 216 105 238 -33 157z"/>
<path d="M4100 5307 c0 -13 11 -43 23 -68 13 -24 47 -87 75 -139 28 -53 64
-127 79 -165 26 -67 28 -78 29 -254 0 -114 4 -186 11 -188 16 -6 63 47 90 100
34 68 63 188 63 261 0 79 -24 180 -56 234 -38 64 -140 162 -214 205 -76 44
-100 47 -100 14z"/>
<path d="M2837 5276 c-63 -65 -110 -161 -115 -237 -4 -54 -2 -60 24 -87 16
-15 74 -52 129 -82 55 -29 156 -88 225 -131 138 -85 177 -105 186 -96 17 17
-16 65 -133 191 -155 166 -219 241 -241 281 -10 18 -18 65 -22 120 l-5 90 -48
-49z"/>
<path d="M5175 5246 c6 -58 4 -81 -9 -108 -20 -42 -91 -129 -211 -258 -106
-114 -175 -205 -175 -231 0 -35 8 -32 205 91 77 48 179 108 227 133 47 26 98
62 113 79 25 29 27 38 22 88 -8 69 -66 186 -120 240 -22 22 -44 40 -49 40 -6
0 -7 -28 -3 -74z"/>
<path d="M2365 4861 c-17 -10 -53 -43 -82 -73 -169 -180 -263 -459 -263 -782
0 -200 45 -348 142 -466 95 -116 224 -188 463 -260 194 -58 208 -74 77 -85
-220 -20 -420 -70 -506 -126 -78 -52 -155 -153 -133 -175 3 -3 45 10 94 30 97
38 203 60 363 75 133 13 287 17 296 8 9 -9 14 -7 -101 -45 -218 -73 -354 -153
-487 -290 -147 -150 -201 -255 -202 -392 -1 -68 4 -95 21 -133 33 -72 48 -62
98 70 23 61 61 141 84 177 55 84 197 225 286 283 78 52 216 115 306 140 91 25
94 1 6 -43 -126 -63 -245 -170 -290 -260 -30 -60 -41 -104 -27 -104 6 0 45 30
88 66 94 80 337 203 358 181 4 -4 -22 -37 -57 -74 -182 -190 -269 -381 -269
-593 0 -113 17 -180 59 -230 31 -38 96 -79 107 -67 4 3 6 71 5 151 -2 110 2
158 15 202 50 174 191 419 270 471 23 14 26 14 45 -3 38 -34 87 -150 123 -289
21 -85 44 -252 60 -455 21 -243 47 -311 160 -418 60 -57 126 -92 218 -116 223
-58 605 -39 773 38 72 33 155 112 194 186 40 74 55 153 76 395 9 105 23 228
31 275 31 181 92 362 130 387 19 12 25 11 54 -14 68 -57 190 -283 230 -424 25
-91 37 -277 21 -334 -9 -34 -9 -42 6 -53 9 -6 21 -12 26 -12 18 0 87 83 113
136 25 51 26 58 22 211 -3 150 -5 161 -34 229 -37 85 -117 210 -203 317 -35
43 -61 81 -58 84 4 3 32 -5 64 -17 113 -45 232 -112 302 -171 39 -32 75 -59
81 -59 40 0 -59 160 -154 247 -35 32 -100 78 -145 103 -44 25 -81 48 -81 52 0
24 166 -24 280 -82 218 -110 394 -327 464 -572 13 -45 21 -58 36 -58 26 0 45
31 66 108 23 82 10 152 -47 270 -33 68 -58 101 -137 181 -149 149 -280 229
-494 300 -54 18 -98 37 -98 43 0 17 275 2 420 -22 69 -12 170 -37 225 -55 55
-19 101 -32 103 -30 12 12 -14 60 -56 103 -93 95 -259 158 -502 188 -160 21
-180 37 -75 64 160 42 233 67 324 111 138 67 230 156 290 280 57 119 72 194
72 363 -1 308 -58 527 -184 716 -62 94 -177 193 -177 153 0 -5 16 -64 35 -133
58 -204 115 -565 115 -719 -1 -233 -84 -388 -253 -471 -87 -43 -268 -94 -303
-86 -22 6 -44 44 -44 77 0 15 20 29 85 59 165 76 261 160 336 294 67 122 78
172 79 368 1 161 -1 178 -25 248 -56 164 -172 351 -223 358 -26 4 -27 -7 -7
-74 27 -86 45 -234 51 -424 7 -208 -3 -271 -57 -367 -41 -72 -143 -162 -216
-191 -91 -37 -143 -39 -258 -7 -198 55 -275 65 -275 35 0 -5 37 -35 83 -66
155 -109 257 -234 257 -315 0 -46 -28 -84 -134 -182 -57 -53 -96 -96 -96 -108
0 -34 46 -35 149 -1 56 19 99 28 104 23 11 -11 -8 -75 -26 -89 -7 -5 -59 -25
-117 -46 -121 -42 -172 -70 -165 -88 11 -29 52 -42 143 -46 87 -4 92 -6 92
-27 0 -48 -28 -58 -193 -66 -161 -8 -207 -18 -207 -44 0 -22 82 -71 143 -85
29 -7 61 -17 71 -23 19 -9 19 -10 -3 -28 -35 -28 -87 -39 -193 -39 -218 0
-399 66 -438 160 -11 26 -10 38 5 78 24 63 83 118 185 171 47 24 100 55 118
68 45 34 75 96 76 162 1 49 -2 56 -24 69 -24 14 -34 11 -160 -48 -281 -130
-382 -130 -652 -4 -53 25 -112 48 -131 51 -89 14 -85 -121 6 -208 18 -17 78
-58 134 -90 157 -92 210 -163 183 -244 -14 -42 -56 -76 -130 -105 -166 -65
-381 -83 -478 -41 -29 13 -51 29 -49 35 2 5 42 24 90 41 87 30 137 63 137 89
0 22 -24 26 -193 33 -143 6 -162 8 -183 27 -13 12 -24 30 -26 41 -3 17 4 21
47 27 28 3 76 7 107 7 57 1 88 17 88 47 0 19 -57 46 -176 83 -110 33 -140 52
-149 91 -11 49 5 54 91 27 113 -36 164 -39 164 -9 0 10 -52 69 -115 131 -110
108 -115 115 -115 155 0 89 123 232 293 340 111 71 33 87 -143 31 -103 -34
-120 -37 -209 -33 -78 2 -105 8 -145 28 -110 56 -191 159 -232 295 -37 120
-19 426 38 657 12 49 19 91 15 94 -14 15 -49 -12 -101 -78 -68 -85 -96 -137
-138 -261 -29 -84 -32 -105 -36 -247 -3 -117 0 -171 12 -223 46 -199 215 -382
426 -463 63 -24 65 -27 51 -74 -16 -55 -34 -62 -113 -45 -166 34 -264 81 -349
165 -104 103 -139 204 -139 405 0 112 6 158 39 325 22 107 60 262 85 345 25
82 42 153 38 157 -4 4 -21 -1 -37 -11z m1725 -2321 c25 -6 83 -25 130 -41 47
-17 121 -38 165 -48 l80 -17 -2 -69 c-2 -84 -42 -226 -85 -307 -71 -134 -217
-207 -387 -195 -159 11 -277 89 -340 226 -39 86 -83 253 -79 305 l3 39 85 17
c47 10 117 30 155 45 90 35 196 65 215 60 8 -2 35 -9 60 -15z m-485 -750 c40
-42 109 -85 186 -117 53 -21 85 -26 186 -30 206 -9 314 23 438 126 33 28 65
51 71 51 18 0 21 -28 13 -112 -10 -100 -36 -159 -90 -197 -175 -128 -689 -112
-808 25 -44 50 -84 213 -67 278 8 31 24 26 71 -24z"/>
<path d="M2700 4744 c-14 -37 -12 -109 4 -148 16 -39 67 -74 150 -101 68 -22
69 -24 82 -147 10 -105 95 -195 204 -219 46 -10 69 -9 141 6 48 9 96 14 108
10 13 -4 40 -38 66 -85 47 -81 70 -108 83 -96 4 4 7 76 6 159 0 177 -14 226
-90 324 -100 130 -230 199 -437 234 -134 22 -206 42 -253 70 -42 25 -53 24
-64 -7z m490 -335 c84 -51 101 -88 50 -114 -43 -22 -76 -18 -112 14 -25 22
-32 36 -31 64 1 20 4 40 8 46 10 17 47 13 85 -10z"/>
<path d="M5283 4738 c-43 -20 -105 -37 -200 -53 -217 -38 -286 -69 -407 -185
-128 -124 -156 -193 -156 -395 0 -102 13 -147 38 -131 7 4 31 37 56 74 39 60
81 112 90 112 2 0 23 -7 47 -16 27 -10 78 -17 129 -18 73 -1 90 2 122 22 82
51 138 149 138 241 0 67 30 95 123 115 16 4 48 25 73 48 43 40 44 42 44 104 0
62 -13 115 -27 113 -5 0 -36 -14 -70 -31z m-325 -324 c32 -22 27 -51 -17 -95
-43 -43 -80 -50 -119 -23 -41 28 -22 65 58 113 42 25 49 26 78 5z"/>
</g>
</svg>
